<?xml version="1.0" encoding="utf-8" standalone="no"?>
<!DOCTYPE svg PUBLIC "-//W3C//DTD SVG 1.1//EN"
  "http://www.w3.org/Graphics/SVG/1.1/DTD/svg11.dtd">
<svg xmlns:xlink="http://www.w3.org/1999/xlink" width="460.8pt" height="345.6pt" viewBox="0 0 460.8 345.6" xmlns="http://www.w3.org/2000/svg" version="1.1">
 <metadata>
  <rdf:RDF xmlns:dc="http://purl.org/dc/elements/1.1/" xmlns:cc="http://creativecommons.org/ns#" xmlns:rdf="http://www.w3.org/1999/02/22-rdf-syntax-ns#">
   <cc:Work>
    <dc:type rdf:resource="http://purl.org/dc/dcmitype/StillImage"/>
    <dc:date>2023-04-19T14:11:58.082614</dc:date>
    <dc:format>image/svg+xml</dc:format>
    <dc:creator>
     <cc:Agent>
      <dc:title>Matplotlib v3.7.1, https://matplotlib.org/</dc:title>
     </cc:Agent>
    </dc:creator>
   </cc:Work>
  </rdf:RDF>
 </metadata>
 <defs>
  <style type="text/css">*{stroke-linejoin: round; stroke-linecap: butt}</style>
 </defs>
 <g id="figure_1">
  <g id="patch_1">
   <path d="M 0 345.6 
L 460.8 345.6 
L 460.8 0 
L 0 0 
z
" style="fill: #ffffff"/>
  </g>
  <g id="axes_1">
   <g id="patch_2">
    <path d="M 57.6 307.584 
L 414.72 307.584 
L 414.72 41.472 
L 57.6 41.472 
z
" style="fill: #ffffff"/>
   </g>
   <g id="matplotlib.axis_1">
    <g id="xtick_1">
     <g id="line2d_1">
      <defs>
       <path id="md204897228" d="M 0 0 
L 0 3.5 
" style="stroke: #000000; stroke-width: 0.8"/>
      </defs>
      <g>
       <use xlink:href="#md204897228" x="73.832727" y="307.584" style="stroke: #000000; stroke-width: 0.8"/>
      </g>
     </g>
     <g id="text_1">
      <!-- 0 -->
      <g transform="translate(70.651477 322.182437) scale(0.1 -0.1)">
       <defs>
        <path id="DejaVuSans-30" d="M 2034 4250 
Q 1547 4250 1301 3770 
Q 1056 3291 1056 2328 
Q 1056 1369 1301 889 
Q 1547 409 2034 409 
Q 2525 409 2770 889 
Q 3016 1369 3016 2328 
Q 3016 3291 2770 3770 
Q 2525 4250 2034 4250 
z
M 2034 4750 
Q 2819 4750 3233 4129 
Q 3647 3509 3647 2328 
Q 3647 1150 3233 529 
Q 2819 -91 2034 -91 
Q 1250 -91 836 529 
Q 422 1150 422 2328 
Q 422 3509 836 4129 
Q 1250 4750 2034 4750 
z
" transform="scale(0.015625)"/>
       </defs>
       <use xlink:href="#DejaVuSans-30"/>
      </g>
     </g>
    </g>
    <g id="xtick_2">
     <g id="line2d_2">
      <g>
       <use xlink:href="#md204897228" x="138.828632" y="307.584" style="stroke: #000000; stroke-width: 0.8"/>
      </g>
     </g>
     <g id="text_2">
      <!-- 200 -->
      <g transform="translate(129.284882 322.182437) scale(0.1 -0.1)">
       <defs>
        <path id="DejaVuSans-32" d="M 1228 531 
L 3431 531 
L 3431 0 
L 469 0 
L 469 531 
Q 828 903 1448 1529 
Q 2069 2156 2228 2338 
Q 2531 2678 2651 2914 
Q 2772 3150 2772 3378 
Q 2772 3750 2511 3984 
Q 2250 4219 1831 4219 
Q 1534 4219 1204 4116 
Q 875 4013 500 3803 
L 500 4441 
Q 881 4594 1212 4672 
Q 1544 4750 1819 4750 
Q 2544 4750 2975 4387 
Q 3406 4025 3406 3419 
Q 3406 3131 3298 2873 
Q 3191 2616 2906 2266 
Q 2828 2175 2409 1742 
Q 1991 1309 1228 531 
z
" transform="scale(0.015625)"/>
       </defs>
       <use xlink:href="#DejaVuSans-32"/>
       <use xlink:href="#DejaVuSans-30" x="63.623047"/>
       <use xlink:href="#DejaVuSans-30" x="127.246094"/>
      </g>
     </g>
    </g>
    <g id="xtick_3">
     <g id="line2d_3">
      <g>
       <use xlink:href="#md204897228" x="203.824537" y="307.584" style="stroke: #000000; stroke-width: 0.8"/>
      </g>
     </g>
     <g id="text_3">
      <!-- 400 -->
      <g transform="translate(194.280787 322.182437) scale(0.1 -0.1)">
       <defs>
        <path id="DejaVuSans-34" d="M 2419 4116 
L 825 1625 
L 2419 1625 
L 2419 4116 
z
M 2253 4666 
L 3047 4666 
L 3047 1625 
L 3713 1625 
L 3713 1100 
L 3047 1100 
L 3047 0 
L 2419 0 
L 2419 1100 
L 313 1100 
L 313 1709 
L 2253 4666 
z
" transform="scale(0.015625)"/>
       </defs>
       <use xlink:href="#DejaVuSans-34"/>
       <use xlink:href="#DejaVuSans-30" x="63.623047"/>
       <use xlink:href="#DejaVuSans-30" x="127.246094"/>
      </g>
     </g>
    </g>
    <g id="xtick_4">
     <g id="line2d_4">
      <g>
       <use xlink:href="#md204897228" x="268.820442" y="307.584" style="stroke: #000000; stroke-width: 0.8"/>
      </g>
     </g>
     <g id="text_4">
      <!-- 600 -->
      <g transform="translate(259.276692 322.182437) scale(0.1 -0.1)">
       <defs>
        <path id="DejaVuSans-36" d="M 2113 2584 
Q 1688 2584 1439 2293 
Q 1191 2003 1191 1497 
Q 1191 994 1439 701 
Q 1688 409 2113 409 
Q 2538 409 2786 701 
Q 3034 994 3034 1497 
Q 3034 2003 2786 2293 
Q 2538 2584 2113 2584 
z
M 3366 4563 
L 3366 3988 
Q 3128 4100 2886 4159 
Q 2644 4219 2406 4219 
Q 1781 4219 1451 3797 
Q 1122 3375 1075 2522 
Q 1259 2794 1537 2939 
Q 1816 3084 2150 3084 
Q 2853 3084 3261 2657 
Q 3669 2231 3669 1497 
Q 3669 778 3244 343 
Q 2819 -91 2113 -91 
Q 1303 -91 875 529 
Q 447 1150 447 2328 
Q 447 3434 972 4092 
Q 1497 4750 2381 4750 
Q 2619 4750 2861 4703 
Q 3103 4656 3366 4563 
z
" transform="scale(0.015625)"/>
       </defs>
       <use xlink:href="#DejaVuSans-36"/>
       <use xlink:href="#DejaVuSans-30" x="63.623047"/>
       <use xlink:href="#DejaVuSans-30" x="127.246094"/>
      </g>
     </g>
    </g>
    <g id="xtick_5">
     <g id="line2d_5">
      <g>
       <use xlink:href="#md204897228" x="333.816347" y="307.584" style="stroke: #000000; stroke-width: 0.8"/>
      </g>
     </g>
     <g id="text_5">
      <!-- 800 -->
      <g transform="translate(324.272597 322.182437) scale(0.1 -0.1)">
       <defs>
        <path id="DejaVuSans-38" d="M 2034 2216 
Q 1584 2216 1326 1975 
Q 1069 1734 1069 1313 
Q 1069 891 1326 650 
Q 1584 409 2034 409 
Q 2484 409 2743 651 
Q 3003 894 3003 1313 
Q 3003 1734 2745 1975 
Q 2488 2216 2034 2216 
z
M 1403 2484 
Q 997 2584 770 2862 
Q 544 3141 544 3541 
Q 544 4100 942 4425 
Q 1341 4750 2034 4750 
Q 2731 4750 3128 4425 
Q 3525 4100 3525 3541 
Q 3525 3141 3298 2862 
Q 3072 2584 2669 2484 
Q 3125 2378 3379 2068 
Q 3634 1759 3634 1313 
Q 3634 634 3220 271 
Q 2806 -91 2034 -91 
Q 1263 -91 848 271 
Q 434 634 434 1313 
Q 434 1759 690 2068 
Q 947 2378 1403 2484 
z
M 1172 3481 
Q 1172 3119 1398 2916 
Q 1625 2713 2034 2713 
Q 2441 2713 2670 2916 
Q 2900 3119 2900 3481 
Q 2900 3844 2670 4047 
Q 2441 4250 2034 4250 
Q 1625 4250 1398 4047 
Q 1172 3844 1172 3481 
z
" transform="scale(0.015625)"/>
       </defs>
       <use xlink:href="#DejaVuSans-38"/>
       <use xlink:href="#DejaVuSans-30" x="63.623047"/>
       <use xlink:href="#DejaVuSans-30" x="127.246094"/>
      </g>
     </g>
    </g>
    <g id="xtick_6">
     <g id="line2d_6">
      <g>
       <use xlink:href="#md204897228" x="398.812252" y="307.584" style="stroke: #000000; stroke-width: 0.8"/>
      </g>
     </g>
     <g id="text_6">
      <!-- 1000 -->
      <g transform="translate(386.087252 322.182437) scale(0.1 -0.1)">
       <defs>
        <path id="DejaVuSans-31" d="M 794 531 
L 1825 531 
L 1825 4091 
L 703 3866 
L 703 4441 
L 1819 4666 
L 2450 4666 
L 2450 531 
L 3481 531 
L 3481 0 
L 794 0 
L 794 531 
z
" transform="scale(0.015625)"/>
       </defs>
       <use xlink:href="#DejaVuSans-31"/>
       <use xlink:href="#DejaVuSans-30" x="63.623047"/>
       <use xlink:href="#DejaVuSans-30" x="127.246094"/>
       <use xlink:href="#DejaVuSans-30" x="190.869141"/>
      </g>
     </g>
    </g>
    <g id="text_7">
     <!-- t -->
     <g transform="translate(234.199844 335.860562) scale(0.1 -0.1)">
      <defs>
       <path id="DejaVuSans-74" d="M 1172 4494 
L 1172 3500 
L 2356 3500 
L 2356 3053 
L 1172 3053 
L 1172 1153 
Q 1172 725 1289 603 
Q 1406 481 1766 481 
L 2356 481 
L 2356 0 
L 1766 0 
Q 1100 0 847 248 
Q 594 497 594 1153 
L 594 3053 
L 172 3053 
L 172 3500 
L 594 3500 
L 594 4494 
L 1172 4494 
z
" transform="scale(0.015625)"/>
      </defs>
      <use xlink:href="#DejaVuSans-74"/>
     </g>
    </g>
   </g>
   <g id="matplotlib.axis_2">
    <g id="ytick_1">
     <g id="line2d_7">
      <defs>
       <path id="me4dd3bd323" d="M 0 0 
L -3.5 0 
" style="stroke: #000000; stroke-width: 0.8"/>
      </defs>
      <g>
       <use xlink:href="#me4dd3bd323" x="57.6" y="295.488" style="stroke: #000000; stroke-width: 0.8"/>
      </g>
     </g>
     <g id="text_8">
      <!-- 0 -->
      <g transform="translate(44.2375 299.287219) scale(0.1 -0.1)">
       <use xlink:href="#DejaVuSans-30"/>
      </g>
     </g>
    </g>
    <g id="ytick_2">
     <g id="line2d_8">
      <g>
       <use xlink:href="#me4dd3bd323" x="57.6" y="246.116571" style="stroke: #000000; stroke-width: 0.8"/>
      </g>
     </g>
     <g id="text_9">
      <!-- 10 -->
      <g transform="translate(37.875 249.91579) scale(0.1 -0.1)">
       <use xlink:href="#DejaVuSans-31"/>
       <use xlink:href="#DejaVuSans-30" x="63.623047"/>
      </g>
     </g>
    </g>
    <g id="ytick_3">
     <g id="line2d_9">
      <g>
       <use xlink:href="#me4dd3bd323" x="57.6" y="196.745143" style="stroke: #000000; stroke-width: 0.8"/>
      </g>
     </g>
     <g id="text_10">
      <!-- 20 -->
      <g transform="translate(37.875 200.544362) scale(0.1 -0.1)">
       <use xlink:href="#DejaVuSans-32"/>
       <use xlink:href="#DejaVuSans-30" x="63.623047"/>
      </g>
     </g>
    </g>
    <g id="ytick_4">
     <g id="line2d_10">
      <g>
       <use xlink:href="#me4dd3bd323" x="57.6" y="147.373714" style="stroke: #000000; stroke-width: 0.8"/>
      </g>
     </g>
     <g id="text_11">
      <!-- 30 -->
      <g transform="translate(37.875 151.172933) scale(0.1 -0.1)">
       <defs>
        <path id="DejaVuSans-33" d="M 2597 2516 
Q 3050 2419 3304 2112 
Q 3559 1806 3559 1356 
Q 3559 666 3084 287 
Q 2609 -91 1734 -91 
Q 1441 -91 1130 -33 
Q 819 25 488 141 
L 488 750 
Q 750 597 1062 519 
Q 1375 441 1716 441 
Q 2309 441 2620 675 
Q 2931 909 2931 1356 
Q 2931 1769 2642 2001 
Q 2353 2234 1838 2234 
L 1294 2234 
L 1294 2753 
L 1863 2753 
Q 2328 2753 2575 2939 
Q 2822 3125 2822 3475 
Q 2822 3834 2567 4026 
Q 2313 4219 1838 4219 
Q 1578 4219 1281 4162 
Q 984 4106 628 3988 
L 628 4550 
Q 988 4650 1302 4700 
Q 1616 4750 1894 4750 
Q 2613 4750 3031 4423 
Q 3450 4097 3450 3541 
Q 3450 3153 3228 2886 
Q 3006 2619 2597 2516 
z
" transform="scale(0.015625)"/>
       </defs>
       <use xlink:href="#DejaVuSans-33"/>
       <use xlink:href="#DejaVuSans-30" x="63.623047"/>
      </g>
     </g>
    </g>
    <g id="ytick_5">
     <g id="line2d_11">
      <g>
       <use xlink:href="#me4dd3bd323" x="57.6" y="98.002286" style="stroke: #000000; stroke-width: 0.8"/>
      </g>
     </g>
     <g id="text_12">
      <!-- 40 -->
      <g transform="translate(37.875 101.801504) scale(0.1 -0.1)">
       <use xlink:href="#DejaVuSans-34"/>
       <use xlink:href="#DejaVuSans-30" x="63.623047"/>
      </g>
     </g>
    </g>
    <g id="ytick_6">
     <g id="line2d_12">
      <g>
       <use xlink:href="#me4dd3bd323" x="57.6" y="48.630857" style="stroke: #000000; stroke-width: 0.8"/>
      </g>
     </g>
     <g id="text_13">
      <!-- 50 -->
      <g transform="translate(37.875 52.430076) scale(0.1 -0.1)">
       <defs>
        <path id="DejaVuSans-35" d="M 691 4666 
L 3169 4666 
L 3169 4134 
L 1269 4134 
L 1269 2991 
Q 1406 3038 1543 3061 
Q 1681 3084 1819 3084 
Q 2600 3084 3056 2656 
Q 3513 2228 3513 1497 
Q 3513 744 3044 326 
Q 2575 -91 1722 -91 
Q 1428 -91 1123 -41 
Q 819 9 494 109 
L 494 744 
Q 775 591 1075 516 
Q 1375 441 1709 441 
Q 2250 441 2565 725 
Q 2881 1009 2881 1497 
Q 2881 1984 2565 2268 
Q 2250 2553 1709 2553 
Q 1456 2553 1204 2497 
Q 953 2441 691 2322 
L 691 4666 
z
" transform="scale(0.015625)"/>
       </defs>
       <use xlink:href="#DejaVuSans-35"/>
       <use xlink:href="#DejaVuSans-30" x="63.623047"/>
      </g>
     </g>
    </g>
    <g id="text_14">
     <!-- Best Lender -->
     <g style="fill: #0000ff" transform="translate(31.795312 204.438938) rotate(-90) scale(0.1 -0.1)">
      <defs>
       <path id="DejaVuSans-42" d="M 1259 2228 
L 1259 519 
L 2272 519 
Q 2781 519 3026 730 
Q 3272 941 3272 1375 
Q 3272 1813 3026 2020 
Q 2781 2228 2272 2228 
L 1259 2228 
z
M 1259 4147 
L 1259 2741 
L 2194 2741 
Q 2656 2741 2882 2914 
Q 3109 3088 3109 3444 
Q 3109 3797 2882 3972 
Q 2656 4147 2194 4147 
L 1259 4147 
z
M 628 4666 
L 2241 4666 
Q 2963 4666 3353 4366 
Q 3744 4066 3744 3513 
Q 3744 3084 3544 2831 
Q 3344 2578 2956 2516 
Q 3422 2416 3680 2098 
Q 3938 1781 3938 1306 
Q 3938 681 3513 340 
Q 3088 0 2303 0 
L 628 0 
L 628 4666 
z
" transform="scale(0.015625)"/>
       <path id="DejaVuSans-65" d="M 3597 1894 
L 3597 1613 
L 953 1613 
Q 991 1019 1311 708 
Q 1631 397 2203 397 
Q 2534 397 2845 478 
Q 3156 559 3463 722 
L 3463 178 
Q 3153 47 2828 -22 
Q 2503 -91 2169 -91 
Q 1331 -91 842 396 
Q 353 884 353 1716 
Q 353 2575 817 3079 
Q 1281 3584 2069 3584 
Q 2775 3584 3186 3129 
Q 3597 2675 3597 1894 
z
M 3022 2063 
Q 3016 2534 2758 2815 
Q 2500 3097 2075 3097 
Q 1594 3097 1305 2825 
Q 1016 2553 972 2059 
L 3022 2063 
z
" transform="scale(0.015625)"/>
       <path id="DejaVuSans-73" d="M 2834 3397 
L 2834 2853 
Q 2591 2978 2328 3040 
Q 2066 3103 1784 3103 
Q 1356 3103 1142 2972 
Q 928 2841 928 2578 
Q 928 2378 1081 2264 
Q 1234 2150 1697 2047 
L 1894 2003 
Q 2506 1872 2764 1633 
Q 3022 1394 3022 966 
Q 3022 478 2636 193 
Q 2250 -91 1575 -91 
Q 1294 -91 989 -36 
Q 684 19 347 128 
L 347 722 
Q 666 556 975 473 
Q 1284 391 1588 391 
Q 1994 391 2212 530 
Q 2431 669 2431 922 
Q 2431 1156 2273 1281 
Q 2116 1406 1581 1522 
L 1381 1569 
Q 847 1681 609 1914 
Q 372 2147 372 2553 
Q 372 3047 722 3315 
Q 1072 3584 1716 3584 
Q 2034 3584 2315 3537 
Q 2597 3491 2834 3397 
z
" transform="scale(0.015625)"/>
       <path id="DejaVuSans-20" transform="scale(0.015625)"/>
       <path id="DejaVuSans-4c" d="M 628 4666 
L 1259 4666 
L 1259 531 
L 3531 531 
L 3531 0 
L 628 0 
L 628 4666 
z
" transform="scale(0.015625)"/>
       <path id="DejaVuSans-6e" d="M 3513 2113 
L 3513 0 
L 2938 0 
L 2938 2094 
Q 2938 2591 2744 2837 
Q 2550 3084 2163 3084 
Q 1697 3084 1428 2787 
Q 1159 2491 1159 1978 
L 1159 0 
L 581 0 
L 581 3500 
L 1159 3500 
L 1159 2956 
Q 1366 3272 1645 3428 
Q 1925 3584 2291 3584 
Q 2894 3584 3203 3211 
Q 3513 2838 3513 2113 
z
" transform="scale(0.015625)"/>
       <path id="DejaVuSans-64" d="M 2906 2969 
L 2906 4863 
L 3481 4863 
L 3481 0 
L 2906 0 
L 2906 525 
Q 2725 213 2448 61 
Q 2172 -91 1784 -91 
Q 1150 -91 751 415 
Q 353 922 353 1747 
Q 353 2572 751 3078 
Q 1150 3584 1784 3584 
Q 2172 3584 2448 3432 
Q 2725 3281 2906 2969 
z
M 947 1747 
Q 947 1113 1208 752 
Q 1469 391 1925 391 
Q 2381 391 2643 752 
Q 2906 1113 2906 1747 
Q 2906 2381 2643 2742 
Q 2381 3103 1925 3103 
Q 1469 3103 1208 2742 
Q 947 2381 947 1747 
z
" transform="scale(0.015625)"/>
       <path id="DejaVuSans-72" d="M 2631 2963 
Q 2534 3019 2420 3045 
Q 2306 3072 2169 3072 
Q 1681 3072 1420 2755 
Q 1159 2438 1159 1844 
L 1159 0 
L 581 0 
L 581 3500 
L 1159 3500 
L 1159 2956 
Q 1341 3275 1631 3429 
Q 1922 3584 2338 3584 
Q 2397 3584 2469 3576 
Q 2541 3569 2628 3553 
L 2631 2963 
z
" transform="scale(0.015625)"/>
      </defs>
      <use xlink:href="#DejaVuSans-42"/>
      <use xlink:href="#DejaVuSans-65" x="68.603516"/>
      <use xlink:href="#DejaVuSans-73" x="130.126953"/>
      <use xlink:href="#DejaVuSans-74" x="182.226562"/>
      <use xlink:href="#DejaVuSans-20" x="221.435547"/>
      <use xlink:href="#DejaVuSans-4c" x="253.222656"/>
      <use xlink:href="#DejaVuSans-65" x="307.185547"/>
      <use xlink:href="#DejaVuSans-6e" x="368.708984"/>
      <use xlink:href="#DejaVuSans-64" x="432.087891"/>
      <use xlink:href="#DejaVuSans-65" x="495.564453"/>
      <use xlink:href="#DejaVuSans-72" x="557.087891"/>
     </g>
    </g>
   </g>
   <g id="line2d_13">
    <path d="M 73.832727 275.739429 
L 74.157707 255.990857 
L 74.482686 73.316571 
L 74.807666 102.939429 
L 75.132645 191.808 
L 75.457625 122.688 
L 75.782604 206.619429 
L 76.107584 102.939429 
L 76.432563 127.625143 
L 76.757543 88.128 
L 77.082523 191.808 
L 77.407502 107.876571 
L 77.732482 112.813714 
L 78.057461 78.253714 
L 78.382441 221.430857 
L 78.70742 251.053714 
L 79.0324 68.379429 
L 79.357379 157.248 
L 79.682359 88.128 
L 80.007338 98.002286 
L 80.332318 162.185143 
L 80.657297 285.613714 
L 80.982277 107.876571 
L 81.307256 137.499429 
L 81.632236 102.939429 
L 81.957215 236.242286 
L 82.282195 231.305143 
L 82.607174 53.568 
L 82.932154 122.688 
L 83.257133 117.750857 
L 83.582113 107.876571 
L 83.907093 73.316571 
L 84.232072 196.745143 
L 84.557052 88.128 
L 84.882031 270.802286 
L 85.207011 112.813714 
L 85.53199 246.116571 
L 85.85697 112.813714 
L 86.181949 216.493714 
L 86.506929 102.939429 
L 87.156888 162.185143 
L 87.481867 206.619429 
L 87.806847 147.373714 
L 88.131826 63.442286 
L 88.456806 221.430857 
L 88.781785 88.128 
L 89.106765 241.179429 
L 89.431744 157.248 
L 89.756724 226.368 
L 90.081704 102.939429 
L 90.406683 58.505143 
L 91.381622 270.802286 
L 91.706601 280.676571 
L 92.031581 93.065143 
L 92.35656 107.876571 
L 92.68154 280.676571 
L 93.006519 93.065143 
L 93.331499 280.676571 
L 93.656478 216.493714 
L 93.981458 68.379429 
L 94.306437 78.253714 
L 94.956396 112.813714 
L 95.281376 176.996571 
L 95.606355 132.562286 
L 95.931335 231.305143 
L 96.256314 132.562286 
L 96.581294 221.430857 
L 96.906274 58.505143 
L 97.231253 201.682286 
L 97.556233 162.185143 
L 97.881212 167.122286 
L 98.206192 226.368 
L 98.531171 211.556571 
L 98.856151 186.870857 
L 99.18113 73.316571 
L 99.50611 147.373714 
L 99.831089 88.128 
L 100.156069 78.253714 
L 100.481048 181.933714 
L 100.806028 93.065143 
L 101.131007 167.122286 
L 101.455987 53.568 
L 101.780966 241.179429 
L 102.105946 162.185143 
L 102.755905 73.316571 
L 103.080885 181.933714 
L 103.405864 211.556571 
L 103.730844 162.185143 
L 104.055823 236.242286 
L 104.380803 127.625143 
L 104.705782 181.933714 
L 105.030762 83.190857 
L 105.355741 251.053714 
L 105.680721 285.613714 
L 106.0057 255.990857 
L 106.33068 78.253714 
L 106.655659 295.488 
L 106.980639 117.750857 
L 107.630598 196.745143 
L 107.955577 290.550857 
L 108.280557 142.436571 
L 108.605536 152.310857 
L 108.930516 270.802286 
L 109.255495 102.939429 
L 109.580475 147.373714 
L 109.905455 216.493714 
L 110.230434 186.870857 
L 110.555414 251.053714 
L 110.880393 98.002286 
L 111.205373 231.305143 
L 111.530352 107.876571 
L 111.855332 246.116571 
L 112.180311 226.368 
L 112.505291 68.379429 
L 112.83027 260.928 
L 113.480229 211.556571 
L 113.805209 73.316571 
L 114.130188 152.310857 
L 114.455168 186.870857 
L 114.780147 73.316571 
L 115.430106 295.488 
L 115.755086 280.676571 
L 116.080066 275.739429 
L 116.405045 246.116571 
L 116.730025 191.808 
L 117.055004 73.316571 
L 117.379984 152.310857 
L 117.704963 142.436571 
L 118.029943 102.939429 
L 118.354922 251.053714 
L 118.679902 216.493714 
L 119.004881 270.802286 
L 119.329861 137.499429 
L 119.65484 285.613714 
L 119.97982 98.002286 
L 120.304799 63.442286 
L 120.629779 102.939429 
L 120.954758 78.253714 
L 121.279738 88.128 
L 121.604717 157.248 
L 121.929697 127.625143 
L 122.254676 137.499429 
L 122.579656 201.682286 
L 122.904636 226.368 
L 123.229615 186.870857 
L 123.554595 176.996571 
L 124.204554 78.253714 
L 124.529533 186.870857 
L 124.854513 196.745143 
L 125.179492 191.808 
L 125.504472 122.688 
L 125.829451 122.688 
L 126.154431 231.305143 
L 126.47941 241.179429 
L 127.129369 196.745143 
L 127.779328 78.253714 
L 128.104308 236.242286 
L 128.429287 93.065143 
L 128.754267 191.808 
L 129.404226 63.442286 
L 129.729206 172.059429 
L 130.054185 191.808 
L 130.704144 295.488 
L 131.029124 181.933714 
L 131.679083 68.379429 
L 132.004062 122.688 
L 132.329042 53.568 
L 132.654021 63.442286 
L 132.979001 98.002286 
L 133.30398 191.808 
L 133.62896 107.876571 
L 133.953939 142.436571 
L 134.278919 211.556571 
L 134.603898 137.499429 
L 134.928878 251.053714 
L 135.253857 246.116571 
L 135.578837 280.676571 
L 135.903817 211.556571 
L 136.228796 186.870857 
L 136.553776 251.053714 
L 136.878755 132.562286 
L 137.203735 211.556571 
L 137.528714 73.316571 
L 137.853694 226.368 
L 138.503653 83.190857 
L 138.828632 216.493714 
L 139.153612 260.928 
L 139.803571 102.939429 
L 140.12855 152.310857 
L 140.45353 122.688 
L 140.778509 280.676571 
L 141.103489 260.928 
L 141.428468 147.373714 
L 141.753448 231.305143 
L 142.078428 117.750857 
L 142.403407 241.179429 
L 142.728387 83.190857 
L 143.053366 211.556571 
L 143.378346 275.739429 
L 143.703325 98.002286 
L 144.028305 275.739429 
L 144.678264 196.745143 
L 145.003243 88.128 
L 145.653202 290.550857 
L 145.978182 295.488 
L 146.303161 147.373714 
L 146.628141 127.625143 
L 146.95312 176.996571 
L 147.2781 167.122286 
L 147.603079 127.625143 
L 147.928059 127.625143 
L 148.253038 216.493714 
L 148.578018 186.870857 
L 148.902998 251.053714 
L 149.227977 112.813714 
L 149.552957 122.688 
L 149.877936 83.190857 
L 150.202916 142.436571 
L 150.527895 157.248 
L 150.852875 83.190857 
L 151.177854 236.242286 
L 151.502834 290.550857 
L 151.827813 260.928 
L 152.152793 73.316571 
L 152.802752 157.248 
L 153.127731 78.253714 
L 153.452711 58.505143 
L 153.77769 260.928 
L 154.10267 270.802286 
L 154.427649 270.802286 
L 155.077609 157.248 
L 155.402588 68.379429 
L 155.727568 58.505143 
L 156.052547 270.802286 
L 156.377527 246.116571 
L 156.702506 191.808 
L 157.027486 102.939429 
L 157.352465 221.430857 
L 158.002424 68.379429 
L 158.327404 255.990857 
L 158.652383 157.248 
L 158.977363 176.996571 
L 159.302342 73.316571 
L 159.627322 255.990857 
L 159.952301 127.625143 
L 160.277281 241.179429 
L 160.60226 157.248 
L 160.92724 112.813714 
L 161.252219 172.059429 
L 161.577199 275.739429 
L 161.902179 255.990857 
L 162.227158 221.430857 
L 162.552138 280.676571 
L 162.877117 73.316571 
L 163.202097 231.305143 
L 163.527076 63.442286 
L 163.852056 260.928 
L 164.177035 78.253714 
L 164.502015 201.682286 
L 164.826994 246.116571 
L 165.151974 246.116571 
L 165.476953 83.190857 
L 165.801933 63.442286 
L 166.451892 270.802286 
L 166.776871 265.865143 
L 167.101851 73.316571 
L 167.42683 226.368 
L 167.75181 211.556571 
L 168.07679 221.430857 
L 168.401769 221.430857 
L 168.726749 147.373714 
L 169.051728 181.933714 
L 169.376708 167.122286 
L 169.701687 162.185143 
L 170.026667 275.739429 
L 170.351646 191.808 
L 170.676626 236.242286 
L 171.001605 73.316571 
L 171.326585 157.248 
L 171.651564 206.619429 
L 172.301523 63.442286 
L 172.626503 285.613714 
L 172.951482 251.053714 
L 173.276462 275.739429 
L 173.601441 117.750857 
L 173.926421 241.179429 
L 174.2514 255.990857 
L 174.57638 142.436571 
L 174.90136 221.430857 
L 175.226339 127.625143 
L 175.551319 142.436571 
L 175.876298 246.116571 
L 176.201278 98.002286 
L 176.526257 68.379429 
L 176.851237 132.562286 
L 177.176216 167.122286 
L 177.501196 58.505143 
L 177.826175 196.745143 
L 178.476134 295.488 
L 178.801114 78.253714 
L 179.126093 226.368 
L 179.776052 53.568 
L 180.101032 58.505143 
L 180.426011 83.190857 
L 180.750991 211.556571 
L 181.075971 83.190857 
L 181.72593 231.305143 
L 182.050909 122.688 
L 182.375889 280.676571 
L 182.700868 88.128 
L 183.025848 122.688 
L 183.350827 176.996571 
L 183.675807 53.568 
L 184.000786 191.808 
L 184.325766 127.625143 
L 184.650745 132.562286 
L 184.975725 236.242286 
L 185.625684 88.128 
L 185.950663 295.488 
L 186.275643 63.442286 
L 186.600622 162.185143 
L 187.250581 231.305143 
L 187.575561 167.122286 
L 187.900541 236.242286 
L 188.22552 265.865143 
L 188.5505 260.928 
L 188.875479 270.802286 
L 189.200459 172.059429 
L 189.525438 147.373714 
L 189.850418 63.442286 
L 190.175397 117.750857 
L 190.500377 226.368 
L 190.825356 102.939429 
L 191.150336 172.059429 
L 191.475315 112.813714 
L 191.800295 167.122286 
L 192.125274 53.568 
L 192.450254 157.248 
L 192.775233 102.939429 
L 193.100213 206.619429 
L 193.425192 122.688 
L 193.750172 260.928 
L 194.075152 241.179429 
L 194.400131 176.996571 
L 194.725111 270.802286 
L 195.05009 260.928 
L 195.37507 167.122286 
L 195.700049 172.059429 
L 196.025029 83.190857 
L 196.674988 152.310857 
L 196.999967 186.870857 
L 197.324947 206.619429 
L 197.974906 58.505143 
L 198.299885 122.688 
L 198.624865 73.316571 
L 198.949844 295.488 
L 199.274824 88.128 
L 199.599803 275.739429 
L 199.924783 122.688 
L 200.249762 196.745143 
L 200.574742 73.316571 
L 200.899722 112.813714 
L 201.224701 251.053714 
L 201.549681 93.065143 
L 201.87466 260.928 
L 202.19964 147.373714 
L 202.524619 107.876571 
L 202.849599 226.368 
L 204.149517 53.568 
L 204.474496 102.939429 
L 204.799476 73.316571 
L 205.124455 211.556571 
L 205.449435 241.179429 
L 205.774414 68.379429 
L 206.099394 132.562286 
L 206.424373 295.488 
L 206.749353 58.505143 
L 207.074333 191.808 
L 207.724292 68.379429 
L 208.049271 181.933714 
L 208.374251 58.505143 
L 208.69923 142.436571 
L 209.02421 290.550857 
L 209.349189 231.305143 
L 209.674169 295.488 
L 209.999148 167.122286 
L 210.324128 211.556571 
L 210.649107 206.619429 
L 210.974087 127.625143 
L 211.624046 98.002286 
L 211.949025 112.813714 
L 212.274005 280.676571 
L 212.598984 246.116571 
L 212.923964 191.808 
L 213.248943 196.745143 
L 213.898903 83.190857 
L 214.223882 93.065143 
L 214.548862 176.996571 
L 214.873841 162.185143 
L 215.198821 241.179429 
L 215.5238 236.242286 
L 215.84878 241.179429 
L 216.498739 142.436571 
L 216.823718 226.368 
L 217.148698 142.436571 
L 217.473677 186.870857 
L 217.798657 122.688 
L 218.123636 167.122286 
L 218.448616 83.190857 
L 218.773595 98.002286 
L 219.098575 191.808 
L 219.423554 221.430857 
L 219.748534 265.865143 
L 220.073514 122.688 
L 220.398493 280.676571 
L 220.723473 260.928 
L 221.048452 167.122286 
L 221.373432 152.310857 
L 221.698411 255.990857 
L 222.023391 265.865143 
L 222.34837 280.676571 
L 222.67335 196.745143 
L 222.998329 280.676571 
L 223.323309 275.739429 
L 223.648288 122.688 
L 223.973268 226.368 
L 224.298247 132.562286 
L 224.623227 117.750857 
L 224.948206 68.379429 
L 225.273186 137.499429 
L 225.598165 102.939429 
L 225.923145 201.682286 
L 226.573104 122.688 
L 226.898084 122.688 
L 227.223063 201.682286 
L 227.548043 241.179429 
L 227.873022 181.933714 
L 228.198002 98.002286 
L 228.522981 295.488 
L 228.847961 152.310857 
L 229.17294 167.122286 
L 229.49792 211.556571 
L 229.822899 142.436571 
L 230.472858 285.613714 
L 230.797838 152.310857 
L 231.122817 157.248 
L 231.447797 186.870857 
L 231.772776 290.550857 
L 232.097756 201.682286 
L 232.422735 270.802286 
L 232.747715 88.128 
L 233.072695 191.808 
L 233.397674 251.053714 
L 233.722654 186.870857 
L 234.047633 63.442286 
L 234.372613 295.488 
L 234.697592 275.739429 
L 235.022572 196.745143 
L 235.347551 285.613714 
L 235.672531 231.305143 
L 235.99751 63.442286 
L 236.32249 78.253714 
L 236.647469 152.310857 
L 236.972449 196.745143 
L 237.297428 260.928 
L 237.622408 68.379429 
L 237.947387 270.802286 
L 238.272367 112.813714 
L 238.597346 137.499429 
L 238.922326 152.310857 
L 239.247305 53.568 
L 239.572285 58.505143 
L 239.897265 98.002286 
L 240.222244 211.556571 
L 240.547224 251.053714 
L 240.872203 236.242286 
L 241.197183 132.562286 
L 241.522162 73.316571 
L 241.847142 265.865143 
L 242.172121 251.053714 
L 242.497101 132.562286 
L 242.82208 275.739429 
L 243.14706 186.870857 
L 243.472039 226.368 
L 243.797019 58.505143 
L 244.121998 275.739429 
L 244.446978 231.305143 
L 244.771957 167.122286 
L 245.096937 251.053714 
L 245.421916 78.253714 
L 245.746896 63.442286 
L 246.071876 265.865143 
L 246.721835 137.499429 
L 247.046814 201.682286 
L 247.371794 107.876571 
L 247.696773 132.562286 
L 248.021753 231.305143 
L 248.346732 78.253714 
L 248.671712 176.996571 
L 248.996691 68.379429 
L 249.321671 63.442286 
L 249.64665 231.305143 
L 249.97163 112.813714 
L 250.296609 201.682286 
L 250.621589 147.373714 
L 250.946568 73.316571 
L 251.271548 127.625143 
L 251.596527 241.179429 
L 251.921507 285.613714 
L 252.246486 167.122286 
L 252.571466 226.368 
L 252.896446 83.190857 
L 253.221425 137.499429 
L 253.546405 63.442286 
L 253.871384 147.373714 
L 254.196364 265.865143 
L 254.521343 83.190857 
L 254.846323 206.619429 
L 255.171302 152.310857 
L 255.821261 172.059429 
L 256.146241 58.505143 
L 256.47122 167.122286 
L 256.7962 102.939429 
L 257.121179 157.248 
L 257.446159 191.808 
L 257.771138 275.739429 
L 258.096118 132.562286 
L 258.746077 280.676571 
L 259.071057 98.002286 
L 259.396036 260.928 
L 259.721016 216.493714 
L 260.045995 63.442286 
L 260.370975 275.739429 
L 260.695954 270.802286 
L 261.020934 107.876571 
L 261.345913 107.876571 
L 261.670893 201.682286 
L 261.995872 102.939429 
L 262.320852 63.442286 
L 262.645831 191.808 
L 262.970811 196.745143 
L 263.29579 107.876571 
L 263.945749 186.870857 
L 264.270729 280.676571 
L 264.595708 78.253714 
L 265.245667 260.928 
L 265.570647 93.065143 
L 265.895627 196.745143 
L 266.220606 78.253714 
L 266.545586 216.493714 
L 266.870565 98.002286 
L 267.195545 157.248 
L 267.520524 102.939429 
L 267.845504 196.745143 
L 268.170483 246.116571 
L 268.495463 88.128 
L 268.820442 275.739429 
L 269.145422 246.116571 
L 269.470401 280.676571 
L 269.795381 241.179429 
L 270.12036 88.128 
L 270.44534 162.185143 
L 270.770319 152.310857 
L 271.095299 211.556571 
L 271.420278 236.242286 
L 271.745258 172.059429 
L 272.070238 172.059429 
L 272.395217 122.688 
L 272.720197 162.185143 
L 273.045176 241.179429 
L 273.370156 93.065143 
L 273.695135 73.316571 
L 274.020115 83.190857 
L 274.345094 63.442286 
L 274.670074 117.750857 
L 274.995053 112.813714 
L 275.320033 285.613714 
L 275.645012 260.928 
L 275.969992 290.550857 
L 276.619951 260.928 
L 276.94493 98.002286 
L 277.26991 181.933714 
L 277.594889 147.373714 
L 277.919869 132.562286 
L 278.244848 83.190857 
L 278.569828 137.499429 
L 278.894808 68.379429 
L 279.219787 78.253714 
L 279.544767 186.870857 
L 279.869746 251.053714 
L 280.194726 132.562286 
L 280.519705 78.253714 
L 280.844685 295.488 
L 281.169664 196.745143 
L 281.494644 255.990857 
L 281.819623 102.939429 
L 282.144603 122.688 
L 282.469582 68.379429 
L 282.794562 216.493714 
L 283.119541 191.808 
L 283.444521 260.928 
L 283.7695 83.190857 
L 284.09448 58.505143 
L 284.419459 122.688 
L 284.744439 152.310857 
L 285.069419 216.493714 
L 285.394398 142.436571 
L 285.719378 117.750857 
L 286.044357 58.505143 
L 286.369337 107.876571 
L 286.694316 88.128 
L 287.019296 167.122286 
L 287.344275 78.253714 
L 287.669255 255.990857 
L 287.994234 162.185143 
L 288.319214 241.179429 
L 288.644193 260.928 
L 288.969173 255.990857 
L 289.294152 236.242286 
L 289.619132 63.442286 
L 289.944111 270.802286 
L 290.269091 93.065143 
L 290.91905 290.550857 
L 291.244029 142.436571 
L 291.569009 107.876571 
L 291.893989 201.682286 
L 292.218968 112.813714 
L 292.543948 221.430857 
L 292.868927 98.002286 
L 293.193907 241.179429 
L 293.518886 58.505143 
L 293.843866 157.248 
L 294.168845 290.550857 
L 294.493825 295.488 
L 294.818804 196.745143 
L 295.143784 241.179429 
L 295.468763 181.933714 
L 295.793743 63.442286 
L 296.118722 112.813714 
L 296.443702 191.808 
L 296.768681 132.562286 
L 297.093661 147.373714 
L 297.41864 78.253714 
L 297.74362 221.430857 
L 298.0686 147.373714 
L 298.393579 221.430857 
L 298.718559 63.442286 
L 299.043538 162.185143 
L 299.693497 295.488 
L 300.018477 142.436571 
L 300.668436 58.505143 
L 300.993415 137.499429 
L 301.318395 98.002286 
L 301.643374 78.253714 
L 301.968354 251.053714 
L 302.293333 63.442286 
L 302.618313 117.750857 
L 302.943292 107.876571 
L 303.593251 236.242286 
L 303.918231 181.933714 
L 304.24321 167.122286 
L 304.56819 231.305143 
L 304.89317 172.059429 
L 305.543129 270.802286 
L 305.868108 211.556571 
L 306.193088 241.179429 
L 306.518067 251.053714 
L 306.843047 132.562286 
L 307.168026 152.310857 
L 307.493006 196.745143 
L 307.817985 78.253714 
L 308.142965 255.990857 
L 308.467944 132.562286 
L 308.792924 251.053714 
L 309.442883 152.310857 
L 310.092842 58.505143 
L 310.417821 93.065143 
L 310.742801 107.876571 
L 311.067781 241.179429 
L 311.39276 231.305143 
L 311.71774 122.688 
L 312.042719 117.750857 
L 312.367699 290.550857 
L 312.692678 285.613714 
L 313.017658 176.996571 
L 313.342637 181.933714 
L 313.667617 260.928 
L 313.992596 270.802286 
L 314.317576 78.253714 
L 314.642555 231.305143 
L 314.967535 88.128 
L 315.292514 142.436571 
L 315.617494 127.625143 
L 315.942473 63.442286 
L 316.267453 172.059429 
L 316.592432 127.625143 
L 316.917412 236.242286 
L 317.242391 270.802286 
L 317.567371 196.745143 
L 317.892351 255.990857 
L 318.21733 260.928 
L 318.54231 98.002286 
L 318.867289 241.179429 
L 319.192269 290.550857 
L 319.517248 63.442286 
L 319.842228 260.928 
L 320.167207 78.253714 
L 320.492187 83.190857 
L 321.142146 280.676571 
L 321.467125 142.436571 
L 321.792105 157.248 
L 322.117084 265.865143 
L 322.442064 127.625143 
L 322.767043 102.939429 
L 323.092023 285.613714 
L 323.741982 221.430857 
L 324.066962 206.619429 
L 324.391941 53.568 
L 325.0419 246.116571 
L 325.36688 201.682286 
L 325.691859 93.065143 
L 326.016839 275.739429 
L 326.341818 236.242286 
L 326.666798 88.128 
L 326.991777 216.493714 
L 327.316757 172.059429 
L 327.641736 107.876571 
L 327.966716 241.179429 
L 328.291695 68.379429 
L 328.616675 107.876571 
L 328.941654 88.128 
L 329.266634 251.053714 
L 329.591613 112.813714 
L 329.916593 251.053714 
L 330.241572 176.996571 
L 330.566552 58.505143 
L 330.891532 53.568 
L 331.216511 162.185143 
L 331.541491 137.499429 
L 331.86647 226.368 
L 332.19145 176.996571 
L 332.516429 290.550857 
L 332.841409 275.739429 
L 333.166388 157.248 
L 333.491368 152.310857 
L 333.816347 206.619429 
L 334.141327 147.373714 
L 334.466306 285.613714 
L 334.791286 275.739429 
L 335.116265 102.939429 
L 335.441245 280.676571 
L 335.766224 251.053714 
L 336.091204 157.248 
L 336.416183 98.002286 
L 336.741163 275.739429 
L 337.066143 122.688 
L 337.391122 137.499429 
L 337.716102 73.316571 
L 338.041081 251.053714 
L 338.69104 102.939429 
L 339.01602 102.939429 
L 339.340999 295.488 
L 339.665979 255.990857 
L 339.990958 127.625143 
L 340.315938 260.928 
L 340.640917 152.310857 
L 340.965897 255.990857 
L 341.290876 117.750857 
L 341.615856 201.682286 
L 341.940835 137.499429 
L 342.265815 270.802286 
L 342.590794 117.750857 
L 342.915774 206.619429 
L 343.240753 73.316571 
L 343.565733 117.750857 
L 343.890713 196.745143 
L 344.215692 68.379429 
L 344.540672 216.493714 
L 344.865651 78.253714 
L 345.190631 201.682286 
L 345.51561 112.813714 
L 345.84059 221.430857 
L 346.165569 93.065143 
L 346.490549 68.379429 
L 346.815528 68.379429 
L 347.140508 117.750857 
L 347.465487 107.876571 
L 347.790467 221.430857 
L 348.115446 270.802286 
L 348.440426 53.568 
L 348.765405 196.745143 
L 349.090385 231.305143 
L 349.415364 246.116571 
L 349.740344 68.379429 
L 350.065324 127.625143 
L 350.390303 265.865143 
L 350.715283 73.316571 
L 351.040262 127.625143 
L 351.365242 137.499429 
L 351.690221 63.442286 
L 352.015201 83.190857 
L 352.34018 231.305143 
L 352.990139 88.128 
L 353.315119 290.550857 
L 353.640098 206.619429 
L 353.965078 172.059429 
L 354.290057 78.253714 
L 354.615037 142.436571 
L 354.940016 122.688 
L 355.264996 176.996571 
L 355.589975 201.682286 
L 355.914955 236.242286 
L 356.239934 295.488 
L 356.564914 275.739429 
L 356.889894 181.933714 
L 357.214873 201.682286 
L 357.539853 102.939429 
L 357.864832 132.562286 
L 358.189812 285.613714 
L 358.514791 78.253714 
L 359.16475 122.688 
L 359.48973 260.928 
L 359.814709 117.750857 
L 360.139689 285.613714 
L 360.464668 191.808 
L 360.789648 186.870857 
L 361.114627 88.128 
L 361.439607 127.625143 
L 361.764586 147.373714 
L 362.089566 58.505143 
L 362.739525 270.802286 
L 363.064505 83.190857 
L 363.389484 241.179429 
L 363.714464 206.619429 
L 364.689402 53.568 
L 365.014382 102.939429 
L 365.339361 191.808 
L 365.664341 102.939429 
L 365.98932 132.562286 
L 366.3143 68.379429 
L 366.639279 260.928 
L 367.289238 73.316571 
L 367.614218 63.442286 
L 367.939197 191.808 
L 368.264177 152.310857 
L 368.589156 78.253714 
L 368.914136 226.368 
L 369.239115 206.619429 
L 369.564095 251.053714 
L 369.889075 201.682286 
L 370.214054 290.550857 
L 370.539034 186.870857 
L 370.864013 260.928 
L 371.188993 251.053714 
L 371.513972 78.253714 
L 371.838952 147.373714 
L 372.163931 112.813714 
L 372.488911 216.493714 
L 372.81389 236.242286 
L 373.13887 265.865143 
L 373.463849 172.059429 
L 373.788829 206.619429 
L 374.113808 137.499429 
L 374.438788 147.373714 
L 374.763767 290.550857 
L 375.088747 132.562286 
L 375.413726 63.442286 
L 375.738706 280.676571 
L 376.063686 68.379429 
L 377.038624 206.619429 
L 377.363604 191.808 
L 378.013563 68.379429 
L 378.338542 295.488 
L 378.663522 58.505143 
L 378.988501 196.745143 
L 379.313481 226.368 
L 379.63846 172.059429 
L 379.96344 211.556571 
L 380.288419 206.619429 
L 380.613399 98.002286 
L 380.938378 211.556571 
L 381.263358 58.505143 
L 381.588337 147.373714 
L 381.913317 83.190857 
L 382.238296 186.870857 
L 382.563276 216.493714 
L 382.888256 216.493714 
L 383.213235 58.505143 
L 383.538215 211.556571 
L 383.863194 290.550857 
L 384.513153 162.185143 
L 384.838133 236.242286 
L 385.163112 251.053714 
L 385.488092 221.430857 
L 385.813071 260.928 
L 386.138051 102.939429 
L 386.46303 211.556571 
L 387.112989 270.802286 
L 387.437969 93.065143 
L 387.762948 122.688 
L 388.087928 127.625143 
L 388.412907 231.305143 
L 388.737887 290.550857 
L 389.062867 147.373714 
L 389.387846 255.990857 
L 389.712826 78.253714 
L 390.037805 63.442286 
L 390.362785 216.493714 
L 390.687764 221.430857 
L 391.662703 93.065143 
L 391.987682 275.739429 
L 392.312662 172.059429 
L 392.637641 206.619429 
L 392.962621 152.310857 
L 393.2876 290.550857 
L 393.61258 83.190857 
L 393.937559 127.625143 
L 394.262539 137.499429 
L 394.587518 102.939429 
L 394.912498 83.190857 
L 395.562457 251.053714 
L 396.212416 63.442286 
L 396.537396 290.550857 
L 397.187355 102.939429 
L 397.512334 241.179429 
L 397.837314 93.065143 
L 398.487273 231.305143 
L 398.487273 231.305143 
" clip-path="url(#p516b94ea8c)" style="fill: none; stroke: #0000ff; stroke-width: 1.5; stroke-linecap: square"/>
   </g>
   <g id="patch_3">
    <path d="M 57.6 307.584 
L 57.6 41.472 
" style="fill: none; stroke: #000000; stroke-width: 0.8; stroke-linejoin: miter; stroke-linecap: square"/>
   </g>
   <g id="patch_4">
    <path d="M 414.72 307.584 
L 414.72 41.472 
" style="fill: none; stroke: #000000; stroke-width: 0.8; stroke-linejoin: miter; stroke-linecap: square"/>
   </g>
   <g id="patch_5">
    <path d="M 57.6 307.584 
L 414.72 307.584 
" style="fill: none; stroke: #000000; stroke-width: 0.8; stroke-linejoin: miter; stroke-linecap: square"/>
   </g>
   <g id="patch_6">
    <path d="M 57.6 41.472 
L 414.72 41.472 
" style="fill: none; stroke: #000000; stroke-width: 0.8; stroke-linejoin: miter; stroke-linecap: square"/>
   </g>
  </g>
  <g id="axes_2">
   <g id="matplotlib.axis_3">
    <g id="ytick_7">
     <g id="line2d_14">
      <defs>
       <path id="m36470bba84" d="M 0 0 
L 3.5 0 
" style="stroke: #000000; stroke-width: 0.8"/>
      </defs>
      <g>
       <use xlink:href="#m36470bba84" x="414.72" y="295.488" style="stroke: #000000; stroke-width: 0.8"/>
      </g>
     </g>
     <g id="text_15">
      <!-- 2 -->
      <g transform="translate(421.72 299.287219) scale(0.1 -0.1)">
       <use xlink:href="#DejaVuSans-32"/>
      </g>
     </g>
    </g>
    <g id="ytick_8">
     <g id="line2d_15">
      <g>
       <use xlink:href="#m36470bba84" x="414.72" y="247.104" style="stroke: #000000; stroke-width: 0.8"/>
      </g>
     </g>
     <g id="text_16">
      <!-- 3 -->
      <g transform="translate(421.72 250.903219) scale(0.1 -0.1)">
       <use xlink:href="#DejaVuSans-33"/>
      </g>
     </g>
    </g>
    <g id="ytick_9">
     <g id="line2d_16">
      <g>
       <use xlink:href="#m36470bba84" x="414.72" y="198.72" style="stroke: #000000; stroke-width: 0.8"/>
      </g>
     </g>
     <g id="text_17">
      <!-- 4 -->
      <g transform="translate(421.72 202.519219) scale(0.1 -0.1)">
       <use xlink:href="#DejaVuSans-34"/>
      </g>
     </g>
    </g>
    <g id="ytick_10">
     <g id="line2d_17">
      <g>
       <use xlink:href="#m36470bba84" x="414.72" y="150.336" style="stroke: #000000; stroke-width: 0.8"/>
      </g>
     </g>
     <g id="text_18">
      <!-- 5 -->
      <g transform="translate(421.72 154.135219) scale(0.1 -0.1)">
       <use xlink:href="#DejaVuSans-35"/>
      </g>
     </g>
    </g>
    <g id="ytick_11">
     <g id="line2d_18">
      <g>
       <use xlink:href="#m36470bba84" x="414.72" y="101.952" style="stroke: #000000; stroke-width: 0.8"/>
      </g>
     </g>
     <g id="text_19">
      <!-- 6 -->
      <g transform="translate(421.72 105.751219) scale(0.1 -0.1)">
       <use xlink:href="#DejaVuSans-36"/>
      </g>
     </g>
    </g>
    <g id="ytick_12">
     <g id="line2d_19">
      <g>
       <use xlink:href="#m36470bba84" x="414.72" y="53.568" style="stroke: #000000; stroke-width: 0.8"/>
      </g>
     </g>
     <g id="text_20">
      <!-- 7 -->
      <g transform="translate(421.72 57.367219) scale(0.1 -0.1)">
       <defs>
        <path id="DejaVuSans-37" d="M 525 4666 
L 3525 4666 
L 3525 4397 
L 1831 0 
L 1172 0 
L 2766 4134 
L 525 4134 
L 525 4666 
z
" transform="scale(0.015625)"/>
       </defs>
       <use xlink:href="#DejaVuSans-37"/>
      </g>
     </g>
    </g>
    <g id="text_21">
     <!-- Best Lender # clients -->
     <g style="fill: #ff0000" transform="translate(439.680938 228.144406) rotate(-90) scale(0.1 -0.1)">
      <defs>
       <path id="DejaVuSans-23" d="M 3272 2816 
L 2363 2816 
L 2100 1772 
L 3016 1772 
L 3272 2816 
z
M 2803 4594 
L 2478 3297 
L 3391 3297 
L 3719 4594 
L 4219 4594 
L 3897 3297 
L 4872 3297 
L 4872 2816 
L 3775 2816 
L 3519 1772 
L 4513 1772 
L 4513 1294 
L 3397 1294 
L 3072 0 
L 2572 0 
L 2894 1294 
L 1978 1294 
L 1656 0 
L 1153 0 
L 1478 1294 
L 494 1294 
L 494 1772 
L 1594 1772 
L 1856 2816 
L 850 2816 
L 850 3297 
L 1978 3297 
L 2297 4594 
L 2803 4594 
z
" transform="scale(0.015625)"/>
       <path id="DejaVuSans-63" d="M 3122 3366 
L 3122 2828 
Q 2878 2963 2633 3030 
Q 2388 3097 2138 3097 
Q 1578 3097 1268 2742 
Q 959 2388 959 1747 
Q 959 1106 1268 751 
Q 1578 397 2138 397 
Q 2388 397 2633 464 
Q 2878 531 3122 666 
L 3122 134 
Q 2881 22 2623 -34 
Q 2366 -91 2075 -91 
Q 1284 -91 818 406 
Q 353 903 353 1747 
Q 353 2603 823 3093 
Q 1294 3584 2113 3584 
Q 2378 3584 2631 3529 
Q 2884 3475 3122 3366 
z
" transform="scale(0.015625)"/>
       <path id="DejaVuSans-6c" d="M 603 4863 
L 1178 4863 
L 1178 0 
L 603 0 
L 603 4863 
z
" transform="scale(0.015625)"/>
       <path id="DejaVuSans-69" d="M 603 3500 
L 1178 3500 
L 1178 0 
L 603 0 
L 603 3500 
z
M 603 4863 
L 1178 4863 
L 1178 4134 
L 603 4134 
L 603 4863 
z
" transform="scale(0.015625)"/>
      </defs>
      <use xlink:href="#DejaVuSans-42"/>
      <use xlink:href="#DejaVuSans-65" x="68.603516"/>
      <use xlink:href="#DejaVuSans-73" x="130.126953"/>
      <use xlink:href="#DejaVuSans-74" x="182.226562"/>
      <use xlink:href="#DejaVuSans-20" x="221.435547"/>
      <use xlink:href="#DejaVuSans-4c" x="253.222656"/>
      <use xlink:href="#DejaVuSans-65" x="307.185547"/>
      <use xlink:href="#DejaVuSans-6e" x="368.708984"/>
      <use xlink:href="#DejaVuSans-64" x="432.087891"/>
      <use xlink:href="#DejaVuSans-65" x="495.564453"/>
      <use xlink:href="#DejaVuSans-72" x="557.087891"/>
      <use xlink:href="#DejaVuSans-20" x="598.201172"/>
      <use xlink:href="#DejaVuSans-23" x="629.988281"/>
      <use xlink:href="#DejaVuSans-20" x="713.777344"/>
      <use xlink:href="#DejaVuSans-63" x="745.564453"/>
      <use xlink:href="#DejaVuSans-6c" x="800.544922"/>
      <use xlink:href="#DejaVuSans-69" x="828.328125"/>
      <use xlink:href="#DejaVuSans-65" x="856.111328"/>
      <use xlink:href="#DejaVuSans-6e" x="917.634766"/>
      <use xlink:href="#DejaVuSans-74" x="981.013672"/>
      <use xlink:href="#DejaVuSans-73" x="1020.222656"/>
     </g>
    </g>
   </g>
   <g id="line2d_20">
    <path d="M 73.832727 198.72 
L 74.157707 198.72 
L 74.482686 247.104 
L 75.132645 247.104 
L 75.457625 150.336 
L 75.782604 198.72 
L 76.107584 150.336 
L 76.432563 247.104 
L 76.757543 150.336 
L 77.082523 247.104 
L 77.732482 247.104 
L 78.057461 198.72 
L 78.382441 247.104 
L 78.70742 198.72 
L 79.0324 101.952 
L 79.357379 247.104 
L 79.682359 247.104 
L 80.007338 198.72 
L 80.332318 198.72 
L 80.657297 150.336 
L 80.982277 198.72 
L 82.607174 198.72 
L 82.932154 247.104 
L 83.257133 247.104 
L 83.582113 150.336 
L 83.907093 247.104 
L 84.232072 198.72 
L 84.557052 247.104 
L 84.882031 198.72 
L 86.181949 198.72 
L 86.506929 247.104 
L 86.831908 198.72 
L 87.156888 198.72 
L 87.481867 247.104 
L 87.806847 198.72 
L 88.456806 198.72 
L 88.781785 150.336 
L 89.431744 247.104 
L 89.756724 247.104 
L 90.081704 150.336 
L 90.406683 247.104 
L 90.731663 198.72 
L 91.056642 198.72 
L 91.381622 247.104 
L 91.706601 198.72 
L 92.35656 198.72 
L 92.68154 150.336 
L 93.006519 247.104 
L 93.331499 150.336 
L 93.656478 247.104 
L 93.981458 198.72 
L 94.306437 247.104 
L 94.631417 150.336 
L 94.956396 247.104 
L 95.606355 150.336 
L 95.931335 198.72 
L 96.256314 198.72 
L 96.581294 247.104 
L 96.906274 198.72 
L 97.231253 247.104 
L 97.556233 247.104 
L 97.881212 101.952 
L 98.206192 198.72 
L 98.531171 150.336 
L 98.856151 198.72 
L 99.831089 198.72 
L 100.156069 150.336 
L 100.806028 247.104 
L 101.455987 247.104 
L 101.780966 198.72 
L 102.105946 198.72 
L 102.430925 101.952 
L 103.405864 247.104 
L 103.730844 101.952 
L 104.380803 198.72 
L 104.705782 198.72 
L 105.030762 247.104 
L 105.680721 247.104 
L 106.0057 150.336 
L 106.33068 198.72 
L 106.655659 198.72 
L 106.980639 247.104 
L 107.305618 150.336 
L 107.630598 101.952 
L 107.955577 198.72 
L 108.280557 198.72 
L 108.605536 247.104 
L 108.930516 150.336 
L 109.255495 198.72 
L 109.905455 198.72 
L 110.230434 247.104 
L 110.555414 198.72 
L 110.880393 247.104 
L 111.530352 150.336 
L 111.855332 150.336 
L 112.180311 198.72 
L 113.805209 198.72 
L 114.130188 247.104 
L 114.455168 198.72 
L 115.105127 198.72 
L 115.430106 101.952 
L 115.755086 247.104 
L 116.080066 247.104 
L 116.405045 198.72 
L 117.704963 198.72 
L 118.029943 247.104 
L 118.354922 247.104 
L 119.004881 150.336 
L 119.65484 247.104 
L 120.304799 150.336 
L 120.629779 150.336 
L 120.954758 198.72 
L 121.279738 198.72 
L 121.604717 247.104 
L 121.929697 53.568 
L 122.254676 198.72 
L 122.579656 150.336 
L 122.904636 247.104 
L 123.229615 198.72 
L 124.529533 198.72 
L 124.854513 247.104 
L 125.179492 198.72 
L 125.829451 198.72 
L 126.154431 247.104 
L 126.47941 150.336 
L 126.80439 198.72 
L 127.779328 198.72 
L 128.104308 247.104 
L 128.754267 150.336 
L 129.079247 247.104 
L 129.404226 198.72 
L 129.729206 247.104 
L 130.054185 247.104 
L 130.379165 198.72 
L 130.704144 247.104 
L 131.354103 150.336 
L 132.004062 247.104 
L 133.30398 247.104 
L 133.62896 198.72 
L 133.953939 247.104 
L 134.278919 247.104 
L 134.603898 198.72 
L 134.928878 247.104 
L 135.253857 198.72 
L 135.578837 247.104 
L 135.903817 150.336 
L 136.228796 150.336 
L 136.878755 247.104 
L 137.203735 198.72 
L 137.853694 198.72 
L 138.178673 247.104 
L 139.478591 247.104 
L 139.803571 150.336 
L 140.12855 198.72 
L 140.45353 198.72 
L 140.778509 295.488 
L 141.103489 198.72 
L 142.403407 198.72 
L 142.728387 150.336 
L 143.053366 247.104 
L 143.378346 198.72 
L 144.028305 198.72 
L 144.678264 101.952 
L 145.328223 198.72 
L 146.303161 198.72 
L 146.628141 247.104 
L 146.95312 198.72 
L 147.2781 198.72 
L 147.603079 247.104 
L 148.253038 150.336 
L 148.902998 150.336 
L 149.227977 198.72 
L 149.552957 198.72 
L 149.877936 247.104 
L 151.502834 247.104 
L 151.827813 198.72 
L 152.152793 247.104 
L 152.802752 150.336 
L 153.127731 247.104 
L 153.452711 247.104 
L 153.77769 198.72 
L 154.10267 247.104 
L 154.427649 198.72 
L 154.752629 247.104 
L 155.077609 247.104 
L 155.402588 198.72 
L 155.727568 198.72 
L 156.052547 247.104 
L 156.377527 247.104 
L 156.702506 150.336 
L 157.027486 198.72 
L 157.352465 198.72 
L 157.677445 247.104 
L 158.002424 198.72 
L 158.327404 198.72 
L 158.652383 247.104 
L 158.977363 247.104 
L 159.302342 198.72 
L 159.627322 247.104 
L 159.952301 198.72 
L 160.60226 198.72 
L 160.92724 247.104 
L 161.902179 247.104 
L 162.227158 198.72 
L 162.552138 198.72 
L 162.877117 247.104 
L 163.202097 198.72 
L 163.527076 247.104 
L 163.852056 247.104 
L 164.177035 198.72 
L 164.502015 247.104 
L 165.151974 150.336 
L 165.476953 198.72 
L 165.801933 150.336 
L 166.776871 295.488 
L 167.42683 198.72 
L 167.75181 198.72 
L 168.07679 247.104 
L 168.401769 247.104 
L 168.726749 198.72 
L 169.051728 247.104 
L 169.376708 101.952 
L 169.701687 247.104 
L 170.026667 198.72 
L 170.351646 247.104 
L 171.326585 247.104 
L 171.651564 150.336 
L 171.976544 198.72 
L 172.301523 150.336 
L 172.626503 198.72 
L 172.951482 198.72 
L 173.276462 150.336 
L 173.601441 198.72 
L 174.2514 198.72 
L 174.57638 247.104 
L 174.90136 150.336 
L 175.551319 247.104 
L 175.876298 198.72 
L 176.201278 198.72 
L 176.526257 247.104 
L 176.851237 198.72 
L 177.176216 198.72 
L 177.501196 150.336 
L 177.826175 198.72 
L 178.151155 198.72 
L 178.476134 247.104 
L 178.801114 247.104 
L 179.126093 198.72 
L 179.451073 247.104 
L 180.101032 150.336 
L 180.426011 247.104 
L 180.750991 247.104 
L 181.40095 150.336 
L 181.72593 247.104 
L 182.050909 198.72 
L 182.375889 247.104 
L 182.700868 198.72 
L 183.025848 101.952 
L 183.350827 150.336 
L 183.675807 150.336 
L 184.000786 247.104 
L 184.325766 247.104 
L 184.975725 150.336 
L 185.300704 198.72 
L 185.625684 198.72 
L 185.950663 247.104 
L 186.275643 198.72 
L 186.600622 247.104 
L 187.250581 247.104 
L 187.575561 198.72 
L 188.22552 198.72 
L 188.5505 247.104 
L 188.875479 247.104 
L 189.200459 198.72 
L 189.850418 198.72 
L 190.175397 247.104 
L 190.500377 198.72 
L 191.150336 198.72 
L 191.475315 247.104 
L 191.800295 247.104 
L 192.125274 198.72 
L 192.450254 247.104 
L 192.775233 150.336 
L 193.100213 150.336 
L 193.750172 247.104 
L 194.075152 247.104 
L 194.400131 198.72 
L 194.725111 198.72 
L 195.05009 101.952 
L 195.37507 247.104 
L 195.700049 247.104 
L 196.025029 150.336 
L 196.350008 150.336 
L 196.674988 198.72 
L 196.999967 150.336 
L 197.324947 247.104 
L 197.649926 198.72 
L 197.974906 247.104 
L 198.299885 198.72 
L 198.624865 247.104 
L 198.949844 150.336 
L 199.274824 198.72 
L 201.549681 198.72 
L 201.87466 247.104 
L 202.19964 150.336 
L 202.524619 198.72 
L 203.499558 198.72 
L 203.824537 247.104 
L 204.474496 247.104 
L 204.799476 198.72 
L 205.124455 198.72 
L 205.449435 247.104 
L 205.774414 198.72 
L 206.424373 198.72 
L 206.749353 247.104 
L 207.724292 247.104 
L 208.049271 198.72 
L 208.374251 198.72 
L 208.69923 247.104 
L 209.02421 247.104 
L 209.349189 198.72 
L 209.674169 247.104 
L 209.999148 198.72 
L 210.324128 198.72 
L 210.649107 247.104 
L 210.974087 198.72 
L 211.299066 247.104 
L 211.624046 198.72 
L 212.598984 198.72 
L 213.248943 295.488 
L 213.573923 198.72 
L 213.898903 247.104 
L 214.223882 101.952 
L 214.548862 247.104 
L 214.873841 198.72 
L 215.198821 198.72 
L 215.5238 150.336 
L 215.84878 53.568 
L 216.173759 198.72 
L 216.498739 247.104 
L 216.823718 198.72 
L 217.148698 247.104 
L 217.798657 150.336 
L 218.123636 247.104 
L 218.448616 198.72 
L 218.773595 198.72 
L 219.098575 247.104 
L 219.423554 247.104 
L 219.748534 198.72 
L 220.723473 198.72 
L 221.048452 247.104 
L 221.373432 247.104 
L 221.698411 150.336 
L 222.34837 247.104 
L 222.67335 198.72 
L 223.323309 198.72 
L 223.648288 247.104 
L 223.973268 198.72 
L 224.298247 198.72 
L 224.623227 247.104 
L 224.948206 198.72 
L 225.273186 247.104 
L 225.598165 198.72 
L 225.923145 247.104 
L 226.248124 150.336 
L 226.573104 198.72 
L 226.898084 198.72 
L 227.223063 247.104 
L 227.548043 198.72 
L 227.873022 247.104 
L 229.17294 247.104 
L 229.49792 198.72 
L 229.822899 247.104 
L 230.472858 247.104 
L 230.797838 198.72 
L 231.122817 101.952 
L 231.447797 247.104 
L 231.772776 247.104 
L 232.097756 150.336 
L 232.422735 101.952 
L 232.747715 247.104 
L 233.072695 198.72 
L 233.397674 198.72 
L 233.722654 150.336 
L 234.047633 198.72 
L 234.697592 198.72 
L 235.022572 101.952 
L 235.347551 247.104 
L 235.672531 198.72 
L 235.99751 198.72 
L 236.32249 247.104 
L 236.647469 247.104 
L 236.972449 150.336 
L 237.297428 198.72 
L 237.947387 198.72 
L 238.272367 247.104 
L 238.597346 198.72 
L 238.922326 198.72 
L 239.247305 247.104 
L 239.572285 198.72 
L 240.222244 198.72 
L 240.547224 101.952 
L 241.522162 247.104 
L 241.847142 198.72 
L 242.172121 247.104 
L 242.82208 150.336 
L 243.14706 198.72 
L 244.446978 198.72 
L 244.771957 247.104 
L 245.096937 247.104 
L 245.421916 198.72 
L 246.396855 198.72 
L 246.721835 247.104 
L 247.046814 247.104 
L 247.371794 198.72 
L 247.696773 198.72 
L 248.021753 150.336 
L 248.671712 247.104 
L 248.996691 198.72 
L 249.321671 198.72 
L 249.64665 247.104 
L 249.97163 198.72 
L 250.296609 247.104 
L 250.621589 198.72 
L 250.946568 247.104 
L 251.271548 247.104 
L 251.596527 198.72 
L 251.921507 198.72 
L 252.246486 247.104 
L 252.571466 198.72 
L 253.221425 198.72 
L 253.546405 247.104 
L 253.871384 198.72 
L 254.196364 247.104 
L 254.846323 247.104 
L 255.171302 101.952 
L 255.496282 101.952 
L 255.821261 198.72 
L 256.47122 198.72 
L 256.7962 247.104 
L 257.121179 198.72 
L 257.446159 247.104 
L 257.771138 198.72 
L 258.096118 247.104 
L 258.421097 198.72 
L 258.746077 198.72 
L 259.071057 247.104 
L 259.396036 150.336 
L 259.721016 247.104 
L 261.020934 247.104 
L 261.670893 150.336 
L 261.995872 150.336 
L 262.320852 198.72 
L 262.970811 198.72 
L 263.29579 247.104 
L 263.62077 247.104 
L 263.945749 150.336 
L 264.270729 150.336 
L 264.595708 198.72 
L 264.920688 150.336 
L 265.570647 247.104 
L 265.895627 198.72 
L 266.220606 247.104 
L 266.545586 150.336 
L 267.195545 247.104 
L 267.520524 198.72 
L 267.845504 198.72 
L 268.170483 247.104 
L 268.495463 247.104 
L 268.820442 198.72 
L 269.145422 198.72 
L 269.470401 150.336 
L 269.795381 247.104 
L 270.44534 150.336 
L 270.770319 247.104 
L 271.420278 247.104 
L 271.745258 198.72 
L 272.070238 198.72 
L 272.395217 247.104 
L 272.720197 198.72 
L 273.045176 247.104 
L 273.370156 150.336 
L 274.020115 247.104 
L 274.345094 198.72 
L 274.670074 198.72 
L 274.995053 150.336 
L 275.320033 247.104 
L 275.645012 247.104 
L 275.969992 198.72 
L 276.619951 198.72 
L 276.94493 150.336 
L 277.26991 247.104 
L 277.594889 247.104 
L 277.919869 150.336 
L 278.244848 150.336 
L 278.569828 198.72 
L 278.894808 198.72 
L 279.219787 247.104 
L 279.869746 150.336 
L 280.194726 247.104 
L 280.844685 247.104 
L 281.169664 198.72 
L 281.494644 247.104 
L 281.819623 247.104 
L 282.144603 198.72 
L 283.444521 198.72 
L 283.7695 150.336 
L 284.09448 150.336 
L 284.419459 247.104 
L 285.069419 247.104 
L 285.394398 150.336 
L 286.044357 247.104 
L 286.369337 198.72 
L 286.694316 247.104 
L 287.019296 198.72 
L 287.344275 198.72 
L 287.669255 247.104 
L 287.994234 150.336 
L 288.319214 247.104 
L 288.644193 247.104 
L 288.969173 198.72 
L 289.294152 247.104 
L 289.619132 198.72 
L 290.59407 198.72 
L 290.91905 247.104 
L 291.244029 198.72 
L 291.569009 247.104 
L 291.893989 198.72 
L 292.218968 247.104 
L 292.868927 247.104 
L 293.193907 150.336 
L 293.518886 198.72 
L 293.843866 198.72 
L 294.168845 247.104 
L 294.493825 198.72 
L 294.818804 198.72 
L 295.143784 247.104 
L 295.468763 198.72 
L 295.793743 247.104 
L 296.443702 247.104 
L 296.768681 198.72 
L 297.093661 247.104 
L 297.41864 150.336 
L 297.74362 198.72 
L 299.043538 198.72 
L 299.368518 247.104 
L 299.693497 198.72 
L 300.018477 247.104 
L 300.668436 247.104 
L 300.993415 198.72 
L 301.318395 247.104 
L 301.643374 150.336 
L 301.968354 247.104 
L 302.293333 247.104 
L 302.618313 198.72 
L 302.943292 198.72 
L 303.268272 247.104 
L 303.593251 198.72 
L 304.56819 198.72 
L 304.89317 247.104 
L 305.218149 198.72 
L 305.868108 198.72 
L 306.193088 150.336 
L 306.518067 198.72 
L 306.843047 198.72 
L 307.168026 150.336 
L 307.493006 247.104 
L 307.817985 247.104 
L 308.467944 150.336 
L 308.792924 198.72 
L 309.117903 150.336 
L 309.442883 247.104 
L 309.767862 247.104 
L 310.092842 198.72 
L 310.417821 247.104 
L 311.71774 247.104 
L 312.042719 198.72 
L 312.692678 198.72 
L 313.017658 150.336 
L 313.342637 247.104 
L 313.667617 53.568 
L 313.992596 198.72 
L 314.642555 198.72 
L 314.967535 150.336 
L 315.292514 198.72 
L 315.617494 150.336 
L 316.267453 247.104 
L 316.592432 150.336 
L 316.917412 247.104 
L 317.567371 247.104 
L 317.892351 198.72 
L 318.21733 247.104 
L 318.54231 198.72 
L 318.867289 247.104 
L 319.517248 247.104 
L 319.842228 150.336 
L 320.167207 247.104 
L 320.817166 150.336 
L 321.142146 150.336 
L 321.467125 247.104 
L 321.792105 247.104 
L 322.117084 198.72 
L 322.442064 247.104 
L 323.092023 150.336 
L 323.417002 247.104 
L 323.741982 198.72 
L 324.066962 198.72 
L 324.391941 247.104 
L 324.716921 198.72 
L 325.0419 247.104 
L 325.36688 247.104 
L 325.691859 198.72 
L 326.341818 295.488 
L 326.666798 198.72 
L 326.991777 198.72 
L 327.316757 247.104 
L 327.641736 247.104 
L 328.291695 150.336 
L 328.616675 198.72 
L 328.941654 150.336 
L 329.266634 247.104 
L 329.591613 198.72 
L 329.916593 247.104 
L 330.241572 198.72 
L 330.566552 247.104 
L 331.216511 247.104 
L 331.541491 198.72 
L 332.19145 198.72 
L 332.516429 247.104 
L 332.841409 198.72 
L 333.491368 198.72 
L 333.816347 150.336 
L 334.141327 150.336 
L 334.466306 198.72 
L 335.116265 198.72 
L 335.441245 101.952 
L 335.766224 247.104 
L 336.091204 53.568 
L 336.416183 247.104 
L 336.741163 198.72 
L 337.066143 247.104 
L 337.716102 150.336 
L 338.041081 247.104 
L 338.69104 247.104 
L 339.340999 150.336 
L 339.665979 198.72 
L 341.615856 198.72 
L 341.940835 247.104 
L 342.265815 150.336 
L 342.590794 247.104 
L 342.915774 247.104 
L 343.240753 198.72 
L 343.890713 198.72 
L 344.215692 247.104 
L 344.540672 247.104 
L 344.865651 198.72 
L 345.51561 295.488 
L 346.165569 198.72 
L 346.490549 247.104 
L 346.815528 247.104 
L 347.465487 150.336 
L 347.790467 198.72 
L 348.765405 198.72 
L 349.090385 247.104 
L 349.740344 247.104 
L 350.065324 198.72 
L 351.040262 198.72 
L 351.365242 150.336 
L 351.690221 198.72 
L 355.589975 198.72 
L 355.914955 247.104 
L 356.239934 101.952 
L 356.564914 247.104 
L 356.889894 198.72 
L 357.214873 247.104 
L 357.539853 198.72 
L 357.864832 198.72 
L 358.189812 101.952 
L 358.514791 198.72 
L 358.839771 150.336 
L 359.16475 53.568 
L 359.48973 198.72 
L 360.139689 198.72 
L 360.464668 247.104 
L 361.114627 150.336 
L 361.439607 198.72 
L 361.764586 150.336 
L 362.089566 198.72 
L 362.739525 198.72 
L 363.064505 247.104 
L 363.389484 247.104 
L 363.714464 198.72 
L 364.039443 247.104 
L 364.364423 150.336 
L 365.014382 247.104 
L 365.339361 247.104 
L 365.664341 198.72 
L 365.98932 101.952 
L 366.3143 198.72 
L 366.639279 198.72 
L 366.964259 247.104 
L 367.289238 247.104 
L 367.614218 198.72 
L 367.939197 247.104 
L 368.264177 150.336 
L 368.589156 198.72 
L 368.914136 198.72 
L 369.239115 247.104 
L 369.564095 198.72 
L 371.513972 198.72 
L 371.838952 53.568 
L 372.163931 198.72 
L 372.488911 247.104 
L 372.81389 150.336 
L 373.13887 198.72 
L 373.463849 150.336 
L 374.113808 247.104 
L 374.438788 198.72 
L 374.763767 198.72 
L 375.088747 247.104 
L 375.738706 247.104 
L 376.063686 198.72 
L 376.388665 247.104 
L 376.713645 198.72 
L 377.363604 198.72 
L 377.688583 247.104 
L 378.013563 247.104 
L 378.338542 198.72 
L 378.663522 198.72 
L 378.988501 247.104 
L 379.313481 247.104 
L 379.63846 198.72 
L 379.96344 247.104 
L 380.288419 150.336 
L 380.613399 247.104 
L 381.263358 150.336 
L 381.913317 150.336 
L 382.238296 198.72 
L 382.563276 198.72 
L 382.888256 247.104 
L 383.213235 247.104 
L 383.538215 150.336 
L 383.863194 198.72 
L 384.513153 198.72 
L 384.838133 247.104 
L 385.163112 198.72 
L 385.488092 198.72 
L 385.813071 101.952 
L 386.138051 198.72 
L 386.46303 247.104 
L 386.78801 198.72 
L 387.112989 198.72 
L 387.437969 247.104 
L 387.762948 150.336 
L 388.412907 247.104 
L 389.712826 247.104 
L 390.037805 198.72 
L 390.362785 198.72 
L 390.687764 150.336 
L 391.012744 53.568 
L 391.337723 198.72 
L 392.312662 198.72 
L 392.637641 150.336 
L 392.962621 198.72 
L 393.2876 150.336 
L 393.61258 198.72 
L 393.937559 198.72 
L 394.262539 247.104 
L 394.587518 247.104 
L 394.912498 101.952 
L 395.237477 247.104 
L 395.887437 150.336 
L 396.212416 247.104 
L 396.537396 150.336 
L 396.862375 101.952 
L 397.187355 247.104 
L 397.512334 198.72 
L 397.837314 198.72 
L 398.162293 247.104 
L 398.487273 198.72 
L 398.487273 198.72 
" clip-path="url(#p516b94ea8c)" style="fill: none; stroke: #ff0000; stroke-width: 1.5; stroke-linecap: square"/>
   </g>
   <g id="patch_7">
    <path d="M 57.6 307.584 
L 57.6 41.472 
" style="fill: none; stroke: #000000; stroke-width: 0.8; stroke-linejoin: miter; stroke-linecap: square"/>
   </g>
   <g id="patch_8">
    <path d="M 414.72 307.584 
L 414.72 41.472 
" style="fill: none; stroke: #000000; stroke-width: 0.8; stroke-linejoin: miter; stroke-linecap: square"/>
   </g>
   <g id="patch_9">
    <path d="M 57.6 307.584 
L 414.72 307.584 
" style="fill: none; stroke: #000000; stroke-width: 0.8; stroke-linejoin: miter; stroke-linecap: square"/>
   </g>
   <g id="patch_10">
    <path d="M 57.6 41.472 
L 414.72 41.472 
" style="fill: none; stroke: #000000; stroke-width: 0.8; stroke-linejoin: miter; stroke-linecap: square"/>
   </g>
   <g id="text_22">
    <!-- Best lender and # clients -->
    <g transform="translate(160.19625 35.472) scale(0.12 -0.12)">
     <defs>
      <path id="DejaVuSans-61" d="M 2194 1759 
Q 1497 1759 1228 1600 
Q 959 1441 959 1056 
Q 959 750 1161 570 
Q 1363 391 1709 391 
Q 2188 391 2477 730 
Q 2766 1069 2766 1631 
L 2766 1759 
L 2194 1759 
z
M 3341 1997 
L 3341 0 
L 2766 0 
L 2766 531 
Q 2569 213 2275 61 
Q 1981 -91 1556 -91 
Q 1019 -91 701 211 
Q 384 513 384 1019 
Q 384 1609 779 1909 
Q 1175 2209 1959 2209 
L 2766 2209 
L 2766 2266 
Q 2766 2663 2505 2880 
Q 2244 3097 1772 3097 
Q 1472 3097 1187 3025 
Q 903 2953 641 2809 
L 641 3341 
Q 956 3463 1253 3523 
Q 1550 3584 1831 3584 
Q 2591 3584 2966 3190 
Q 3341 2797 3341 1997 
z
" transform="scale(0.015625)"/>
     </defs>
     <use xlink:href="#DejaVuSans-42"/>
     <use xlink:href="#DejaVuSans-65" x="68.603516"/>
     <use xlink:href="#DejaVuSans-73" x="130.126953"/>
     <use xlink:href="#DejaVuSans-74" x="182.226562"/>
     <use xlink:href="#DejaVuSans-20" x="221.435547"/>
     <use xlink:href="#DejaVuSans-6c" x="253.222656"/>
     <use xlink:href="#DejaVuSans-65" x="281.005859"/>
     <use xlink:href="#DejaVuSans-6e" x="342.529297"/>
     <use xlink:href="#DejaVuSans-64" x="405.908203"/>
     <use xlink:href="#DejaVuSans-65" x="469.384766"/>
     <use xlink:href="#DejaVuSans-72" x="530.908203"/>
     <use xlink:href="#DejaVuSans-20" x="572.021484"/>
     <use xlink:href="#DejaVuSans-61" x="603.808594"/>
     <use xlink:href="#DejaVuSans-6e" x="665.087891"/>
     <use xlink:href="#DejaVuSans-64" x="728.466797"/>
     <use xlink:href="#DejaVuSans-20" x="791.943359"/>
     <use xlink:href="#DejaVuSans-23" x="823.730469"/>
     <use xlink:href="#DejaVuSans-20" x="907.519531"/>
     <use xlink:href="#DejaVuSans-63" x="939.306641"/>
     <use xlink:href="#DejaVuSans-6c" x="994.287109"/>
     <use xlink:href="#DejaVuSans-69" x="1022.070312"/>
     <use xlink:href="#DejaVuSans-65" x="1049.853516"/>
     <use xlink:href="#DejaVuSans-6e" x="1111.376953"/>
     <use xlink:href="#DejaVuSans-74" x="1174.755859"/>
     <use xlink:href="#DejaVuSans-73" x="1213.964844"/>
    </g>
   </g>
  </g>
 </g>
 <defs>
  <clipPath id="p516b94ea8c">
   <rect x="57.6" y="41.472" width="357.12" height="266.112"/>
  </clipPath>
 </defs>
</svg>
